<?xml version="1.0" standalone="no"?>
<!DOCTYPE svg PUBLIC "-//W3C//DTD SVG 20010904//EN"
 "http://www.w3.org/TR/2001/REC-SVG-20010904/DTD/svg10.dtd">
<svg version="1.0" xmlns="http://www.w3.org/2000/svg"
 width="200.000000pt" height="200.000000pt" viewBox="0 0 200.000000 200.000000"
 preserveAspectRatio="xMidYMid meet">
<metadata>
Created by potrace 1.11, written by Peter Selinger 2001-2013
</metadata>
<g transform="translate(0.000000,200.000000) scale(0.100000,-0.100000)"
fill="#000000" stroke="none">
<path d="M840 1834 c-169 -35 -271 -87 -423 -213 -38 -32 -139 -165 -168 -222
-67 -134 -90 -223 -94 -374 -7 -240 73 -449 236 -614 132 -134 283 -215 455
-245 75 -13 249 -14 304 -2 104 23 134 32 198 62 166 76 330 233 412 394 110
217 114 515 11 737 -112 237 -343 423 -591 474 -83 17 -265 19 -340 3z m70
-159 c0 -8 -12 -17 -27 -21 -217 -46 -374 -168 -470 -364 -44 -91 -39 -85 -57
-71 -12 10 -12 18 6 59 54 123 160 250 263 316 59 39 170 84 228 95 47 9 57 6
57 -14z m217 -411 c101 -48 163 -149 163 -265 0 -100 -45 -185 -128 -243 -51
-35 -94 -47 -168 -48 -233 -2 -372 279 -231 464 89 117 233 153 364 92z m-513
-349 c20 -104 108 -215 212 -266 222 -110 494 15 554 254 l12 47 179 0 178 0
-4 -22 c-2 -13 -6 -42 -9 -66 -26 -178 -158 -374 -331 -490 -60 -40 -158 -85
-212 -96 -15 -4 -39 -9 -53 -12 -58 -13 -195 -13 -267 0 -157 28 -258 78 -375
185 -140 129 -218 277 -242 459 l-5 42 178 0 179 0 6 -35z"/>
<path d="M924 1076 c-28 -28 -34 -42 -34 -76 0 -34 6 -48 34 -76 28 -28 42
-34 76 -34 34 0 48 6 76 34 28 28 34 42 34 76 0 34 -6 48 -34 76 -28 28 -42
34 -76 34 -34 0 -48 -6 -76 -34z"/>
</g>
</svg>
